# xmcd
#
# Track frame offsets: 
#        180
#        34561
#        55890
#        86187
#        122419
#        130267
#        166823
#        201008
#        225288
#        230828
#        260539
#
# Disc length: 3569 seconds
#
# Revision: 2
# Processed by: cddbd v1.5.2PL0 Copyright (c) Steve Scherf et al.
# Submitted via: ExactAudioCopy v0.99pb5
#
DISCID=8a0def0b
DTITLE=Jacek Kochan - Grey Angel
DYEAR=1994
DGENRE=Contemporary Jazz
TTITLE0=Gray Angel
TTITLE1=Padre
TTITLE2=Dream Carefully
TTITLE3=Fugu
TTITLE4=Jerry B. and Knew Edge Stompers
TTITLE5=T.J.M. and A
TTITLE6=Mockers' Lounge
TTITLE7=Marta  Kochan
TTITLE8=As If
TTITLE9=Creek
TTITLE10=T.J.M. and A (Reprise)
EXTD=YEAR: 1994
EXTT0=
EXTT1=
EXTT2=
EXTT3=
EXTT4=
EXTT5=
EXTT6=
EXTT7=
EXTT8=
EXTT9=
EXTT10=
PLAYORDER=
